<?xml version="1.0" encoding="UTF-8" standalone="no"?>
<!-- Created with Inkscape (http://www.inkscape.org/) -->

<svg id="Layer_1" data-name="Layer 1" 
  xmlns="http://www.w3.org/2000/svg" viewBox="0 0 407.34 160.81">
  <defs id="defs2">
    <clipPath id="clipPath1016">
      <path id="path1018" d="m 766.11,3738.8 h -12.726 v 13.47 h 12.726 v -13.47" />
    </clipPath>
    <clipPath id="clipPath712">
      <path id="path714" d="m 3711.8,1621 c 1.65,2.4 3.19,5 4.64,7.76 h 0.61 c 1.34,0 2.67,0.06 3.99,0.19 -2.82,-3.21 -5.89,-5.89 -9.24,-7.95 m -582.76,582.77 c 2.06,3.35 4.74,6.42 7.95,9.24 -0.15,-1.52 -0.21,-3.05 -0.19,-4.6 -2.76,-1.45 -5.36,-2.99 -7.76,-4.64" />
    </clipPath>
    <clipPath id="clipPath680">
      <path id="path682" d="m 3752.3,753.38 h -13.46 v 12.73 l 13.46,-0.007 v -12.72" />
    </clipPath>
    <clipPath id="clipPath204">
      <path id="path206" d="M 0,4505.7 V 0 h 4505.7 v 4505.7 z" />
    </clipPath>
    <clipPath id="clipPath178">
      <path id="path180" d="M 0,4505.7 V 0 h 4505.7 v 4505.7 z" />
    </clipPath>
    <clipPath id="clipPath114">
      <path id="path116" d="m 3217.1,1932.8 c 19.99,128.64 -54.89,140.42 -95.98,231.75 -5.9,13.11 -7.38,25.56 -3.18,36.77 -1.62,-4.35 -2.39,-8.88 -2.39,-13.56 0.01,-7.4 1.97,-15.18 5.58,-23.21 36.39,-80.89 99.29,-99.38 99.3,-191.94 0,-11.94 -1.05,-25.11 -3.33,-39.81" />
    </clipPath>
    <clipPath id="clipPath98">
      <path id="path100" d="m 3175.4,1839.8 c 20.92,24.68 35.84,55.66 41.66,92.98 -5.8,-37.25 -20.66,-68.2 -41.53,-92.87 -0.04,-0.03 -0.09,-0.08 -0.13,-0.11" />
    </clipPath>
    <clipPath clipPathUnits="userSpaceOnUse" id="clipPath4470">
      <path id="path4472" style="fill:#000000;stroke-width:1.38695" d="m 100.49805,110.9082 c -11.489029,-0.0334 -22.919783,4.05357 -31.840773,11.28142 -3.094469,2.5035 -5.935236,5.31143 -8.622121,8.24397 -6.122535,7.02424 -10.057933,15.9284 -11.18339,25.17484 -0.45214,3.91028 -0.399108,7.87656 -0.0058,11.78938 0.653866,5.40881 2.342389,10.68253 4.786421,15.54517 1.656328,3.36023 3.827558,6.4277 6.135244,9.36655 3.392823,4.56577 6.871668,9.07643 10.060988,13.78784 1.981869,3.25044 3.770863,6.61918 5.452747,10.03318 3.446267,7.29647 5.250651,15.35435 5.487345,23.38425 0.03176,0.59227 0.03817,1.18548 0.05941,1.77817 13.499349,0 26.998689,0 40.498049,0 0.11452,-3.52641 0.25827,-7.02703 0.88996,-10.51938 1.33067,-7.83807 4.24987,-15.3837 8.48478,-22.10919 2.59487,-4.30049 5.47148,-8.44026 8.39782,-12.53751 2.02696,-3.22414 4.58039,-6.07919 6.5692,-9.33176 2.53932,-3.89643 4.46723,-8.17898 5.69325,-12.66586 2.30576,-8.36873 2.22932,-17.37296 -0.0963,-25.72719 -2.38157,-8.38781 -7.14834,-16.06758 -13.57821,-21.95423 -4.1557,-4.02342 -8.7713,-7.63433 -13.99191,-10.17493 -6.86992,-3.41275 -14.51692,-5.30952 -22.19316,-5.36827 -0.33451,10e-4 -0.66901,0.002 -1.00352,0.004 z" />
    </clipPath>
  </defs>
  <g id="layer1" transform="translate(-170.84307,-93.830313)">
    <g id="g4247" clip-path="url(#clipPath4470)" transform="matrix(0.72100946,0,0,0.72100946,139.78585,17.597176)">
      <path id="path12083" d="m 41.498988,98.697413 0.09907,74.948657 c 5.464175,-0.0565 12.50606,-0.26971 17.479962,-0.26971 h 0.04954 c 2.057241,0.0664 3.505464,-0.0984 4.386527,-0.35224 0.880957,-0.2538 1.108631,-0.54187 1.161309,-0.63841 0.05268,-0.0965 0.09583,-0.23337 -0.06605,-0.67144 -0.16188,-0.43815 -0.550175,-1.05516 -1.084236,-1.66216 -2.098146,-2.38459 -2.744259,-5.04772 -2.504229,-7.28689 0.239959,-2.23936 1.235023,-4.03728 2.465705,-5.16255 2.091849,-1.9126 4.587082,-2.82522 7.006432,-2.87311 3.110441,-0.0615 6.100233,1.30662 7.97507,3.80867 1.522598,2.03222 1.782842,4.48522 1.392449,6.58257 -0.390392,2.09736 -1.336198,3.92404 -2.806964,5.04137 -0.709216,0.53883 -1.16332,1.73527 -1.034706,2.26209 0.0643,0.26342 0.143785,0.43058 0.572399,0.64944 0.428625,0.21885 1.277726,0.42093 2.658269,0.30824 l 0.06605,-0.005 h 18.591741 v -22.91768 c -0.124119,-1.71133 0.07681,-3.11097 0.649446,-4.23228 0.587322,-1.15022 1.628118,-1.94077 2.718858,-2.20699 2.18155,-0.53253 4.27382,0.52617 5.54223,2.19599 0.4082,0.53734 1.67196,1.34813 3.09324,1.61263 1.42119,0.26452 2.90963,0.0721 4.10025,-0.82007 2.96148,-2.21883 3.74809,-6.75138 0.50086,-10.30314 -0.49829,-0.54499 -1.73334,-1.29964 -3.16468,-1.45299 -1.43135,-0.1534 -3.07605,0.16897 -4.85431,1.73368 -0.80341,0.70692 -1.67185,1.31416 -2.65827,1.67865 -0.9865,0.36449 -2.21676,0.45966 -3.29115,-0.12658 -1.074506,-0.58623 -1.767133,-1.69164 -2.163002,-3.06572 -0.392801,-1.36335 -0.542343,-3.0779 -0.473313,-5.31654 l -4.97e-4,-31.458487 z" style="color:#000000;fill:#c5026a;stroke-width:0.264583" />
      <path id="path12081" d="M 101.0757,98.730423 V 130.1812 l -0.005,0.0275 c -0.0664,2.05721 0.10392,3.50546 0.35774,4.38652 0.25381,0.88096 0.53639,1.10861 0.63294,1.16129 0.0965,0.0527 0.23334,0.0958 0.67145,-0.066 0.43813,-0.1619 1.05516,-0.5557 1.66214,-1.08977 2.38461,-2.09814 5.04772,-2.74425 7.28689,-2.5042 2.23938,0.23999 4.04284,1.2405 5.16811,2.47118 4.37171,4.78129 3.51234,11.64326 -0.93565,14.97595 -2.03218,1.52257 -4.48521,1.78835 -6.58257,1.39793 -2.09735,-0.39037 -3.92403,-1.34168 -5.04137,-2.81252 -0.53879,-0.70925 -1.74072,-1.16332 -2.26755,-1.03474 -0.26342,0.0643 -0.42508,0.14377 -0.64395,0.5724 -0.21885,0.42863 -0.4209,1.27775 -0.30821,2.65827 l 0.005,0.066 v 22.98383 h 17.31486 c 2.37821,-0.072 4.6273,0.30633 6.16982,1.76122 0.77724,0.73322 1.29519,1.94019 1.10628,3.12076 -0.1835,1.14658 -0.86109,2.14795 -1.8768,3.12606 -0.002,0.004 -0.002,0.008 -0.005,0.0109 -2.63483,2.90936 -1.5199,8.26558 2.23454,9.60966 l 0.0991,0.0331 0.0936,0.0495 c 4.08967,2.11846 9.87055,-2.33691 8.56933,-6.79715 -0.0991,-0.31811 -0.52718,-1.0347 -1.10077,-1.81073 -0.57791,-0.78195 -1.27146,-1.64862 -1.83828,-2.60334 -0.56679,-0.95467 -1.10622,-2.08002 -0.83658,-3.42873 0.26966,-1.34888 1.43859,-2.39401 2.98318,-2.98847 l 0.13208,-0.0496 0.1376,-0.0275 c 7.21122,-1.38962 15.19056,0.34719 21.76836,0.10454 0.0126,-19.76409 -0.0124,-55.02356 0,-74.787647 -18.31708,0.003 -36.63302,0.033 -54.95129,0.033 z" style="color:#000000;fill:#ff7b02;stroke-width:0.264583" />
      <path id="path12079" d="m 70.575062,157.83995 c -1.653461,0.0335 -3.394075,0.68176 -4.947973,2.10249 -0.544989,0.49826 -1.299633,1.73326 -1.453012,3.16468 -0.153374,1.43132 0.163481,3.07605 1.728205,4.85431 0.706887,0.80341 1.314159,1.66635 1.678649,2.65298 0.36449,0.98647 0.465164,2.21678 -0.121081,3.29115 -0.586264,1.0745 -1.691587,1.76712 -3.065727,2.16299 -1.363372,0.39278 -3.077898,0.54788 -5.316538,0.47882 h -0.04953 c -4.88315,0 -12.016474,0.2134 -17.529067,0.26972 V 254.5806 H 97.90666 c -0.163679,-7.31335 1.168056,-42.5279 0.07155,-48.48314 -0.340307,-0.82473 -0.539432,-0.88498 -0.599916,-0.89715 -0.06454,-0.0128 -0.514218,0.0453 -1.188826,0.44583 -0.674608,0.40053 -1.487593,1.04232 -2.333598,1.66761 -0.846032,0.62529 -1.695398,1.26032 -2.790296,1.5906 h -0.01101 l -0.0055,0.005 c -7.194286,2.09886 -13.803842,-6.26004 -10.583863,-12.87885 h -0.0055 c 2.14466,-5.99044 10.129044,-7.7007 14.739144,-3.506 l 0.04403,0.044 0.04403,0.044 c 0.718926,0.7625 1.23944,0.97457 1.408959,1.00169 0.16954,0.0271 0.115507,0.0557 0.308213,-0.14859 0.385419,-0.40859 0.964539,-2.0792 0.902626,-3.9407 V 176.54741 H 79.375545 c -1.708732,0.12327 -3.106737,-0.0775 -4.226983,-0.64945 -1.15025,-0.58735 -1.946275,-1.62809 -2.212525,-2.71886 -0.532527,-2.18146 0.526177,-4.27381 2.196015,-5.54222 0.537342,-0.4082 1.348079,-1.67746 1.612609,-3.09854 0.264522,-1.42121 0.07765,-2.90962 -0.814546,-4.10025 -1.248093,-1.66579 -3.22924,-2.64059 -5.355167,-2.59778 z" style="color:#000000;fill:#0492d2;stroke-width:0.264583" />
      <path id="rect11854" d="m 139.85621,176.05652 c -1.66249,0.0128 -3.28189,0.12552 -4.83791,0.4128 -0.82516,0.34038 -0.89053,0.5394 -0.90263,0.59989 -0.0129,0.0645 0.0508,0.51422 0.4513,1.18882 0.40053,0.67461 1.04236,1.4931 1.66765,2.33913 0.62529,0.84603 1.26031,1.69543 1.59059,2.7903 v 0.0105 c 2.09833,7.19243 -6.25528,13.80384 -12.8733,10.58915 -0.0686,-0.0245 -0.13063,-0.0565 -0.19813,-0.0825 v -0.005 c -5.82348,-2.25161 -7.45332,-10.09386 -3.30729,-14.65263 l 0.0385,-0.044 0.044,-0.0385 c 0.7625,-0.71887 0.98007,-1.23941 1.00719,-1.40898 0.0271,-0.1695 0.0557,-0.12098 -0.1486,-0.31369 -0.40857,-0.38542 -2.0792,-0.95901 -3.9407,-0.89715 h -17.3699 v 12.92278 h -0.005 c 0.0728,2.38029 -0.30515,4.63153 -1.761229,6.17537 -0.73316,0.77722 -1.934686,1.28966 -3.115204,1.10075 -1.147815,-0.18372 -2.152438,-0.85926 -3.131608,-1.87682 -2.907242,-2.64536 -8.269552,-1.52927 -9.615223,2.22906 l -0.03853,0.099 -0.04953,0.0991 c -2.115767,4.08437 2.331561,9.85652 6.786033,8.57488 0.0016,0 0.0041,-0.005 0.0055,-0.005 h 0.01101 c 0.319537,-0.10078 1.031452,-0.52885 1.805252,-1.10075 0.781923,-0.5779 1.648619,-1.27698 2.603288,-1.84375 0.95467,-0.56679 2.080022,-1.10074 3.428736,-0.83108 1.348845,0.26966 2.399505,1.43306 2.994025,2.97762 l 0.0495,0.13207 0.0275,0.1376 c 1.34059,6.95695 -0.087,42.41674 0.022,49.24511 18.31116,0.0323 36.62233,-0.0353 54.93349,0 v -77.91996 c -5.33718,0.22047 -11.18325,-0.64391 -16.17064,-0.60542 z" style="color:#000000;fill:#6d9908;stroke-width:0.264583" />
    </g>
    <path id="path839" d="m 203.61421,223.05081 c -0.0214,-0.0214 -0.0389,-1.06362 -0.0389,-2.31597 v -2.27698 h 9.20254 9.20254 l 0.0553,2.2674 c 0.0304,1.24707 0.0473,2.27545 0.0374,2.28531 -0.0373,0.0373 -18.42176,0.0774 -18.45888,0.0402 z" style="fill:#000000;stroke-width:1" />
    <path id="path837" d="m 198.99011,211.60996 v -2.29174 l 5.34916,-0.0621 c 2.94204,-0.0342 9.14631,-0.0621 13.78728,-0.0621 h 8.43811 l 0.0618,2.26137 c 0.034,1.24375 0.0508,2.27233 0.0374,2.28572 -0.0134,0.0134 -6.24546,0.055 -13.84904,0.0925 l -13.82469,0.0681 z" style="fill:#000000;stroke-width:1" />
    <path id="path835" d="m 198.96671,204.5586 c -0.0386,-0.041 -0.0702,-1.07812 -0.0702,-2.30473 v -2.23019 l 5.77823,-5e-5 c 3.17802,-4e-5 9.41009,-0.028 13.84903,-0.0622 l 8.0708,-0.0622 v 2.308 2.30799 h -11.5413 c -6.34772,0 -12.5482,0.0265 -13.77885,0.0589 -1.23065,0.0324 -2.26913,0.0254 -2.30773,-0.0156 z" style="fill:#000000;stroke-width:1" />
    <path id="path833" d="m 212.82956,93.833425 c -6.49534,-0.07928 -12.968,1.356417 -18.93941,4.287593 -4.08533,2.005362 -7.52008,4.464612 -11.14712,7.981422 -5.64023,5.46884 -9.41111,12.18747 -11.06651,19.71663 -0.56053,2.54939 -0.76319,4.34754 -0.82269,7.29878 -0.0736,3.65295 0.22375,6.33037 1.10226,9.91877 1.39685,5.70561 3.88037,10.76756 7.75818,15.81402 2.86841,3.73286 5.52996,7.52906 8.00055,11.41068 2.46193,3.86802 4.65363,9.72704 5.61258,15.00425 0.48206,2.65282 0.68487,4.72511 0.76687,7.82536 l 0.0605,2.2841 4.03179,-0.0625 c 2.21748,-0.0342 10.49576,-0.0626 18.39578,-0.0636 7.90003,-0.001 14.4055,-0.0324 14.45699,-0.0698 0.0583,-0.0424 0.0958,-1.07226 0.0997,-2.73523 0.01,-4.29857 0.43671,-7.63999 1.49397,-11.69024 0.93541,-3.58345 2.81229,-8.2643 4.11861,-10.27276 1.13659,-1.74753 5.07892,-7.28306 8.68319,-12.1915 1.83345,-2.49688 2.90109,-4.17643 3.95273,-6.21823 3.65589,-7.09798 5.19791,-14.87399 4.38939,-22.13508 -0.85925,-7.71696 -3.99871,-14.9499 -9.07748,-20.91345 -1.97895,-2.32371 -5.32538,-5.413 -7.88737,-7.28069 -2.4458,-1.782994 -6.2755,-3.893123 -9.01082,-4.965593 -4.85416,-1.903217 -9.91976,-2.881307 -14.9717,-2.942972 z m -0.15038,4.492232 c 0.96085,-0.004 1.84932,0.01717 2.45257,0.06718 6.38279,0.52912 12.22419,2.528563 17.30282,5.922633 1.95849,1.30888 2.92816,2.08963 5.40225,4.35116 2.675,2.44519 4.20468,4.18368 5.872,6.67246 3.76129,5.61444 5.66205,11.88615 5.65805,18.66811 -0.002,3.76547 -0.49282,6.89735 -1.62626,10.38128 -1.30118,3.99947 -2.97742,6.99103 -6.54172,11.67629 -0.79393,1.04361 -1.44872,1.9604 -1.45572,2.0376 -0.007,0.0772 -0.36991,0.62461 -0.80719,1.21646 -2.53196,3.42689 -5.62975,8.22864 -7.23263,11.20965 -3.14796,5.8546 -4.97854,12.71468 -5.13561,19.24896 l -0.0202,0.84232 -0.0331,5.3e-4 v 0.18707 h -27.6996 v -0.0475 h -0.0119 l -0.001,-0.21032 c -5.3e-4,-0.1158 -0.0443,-0.92652 -0.0972,-1.80144 -0.40559,-6.70334 -2.20069,-12.78 -5.53558,-18.73788 -0.32394,-0.57872 -0.90488,-1.64307 -1.29087,-2.36523 -0.386,-0.72217 -1.05961,-1.83977 -1.49707,-2.48357 -0.95018,-1.39838 -5.48542,-7.53832 -8.28373,-11.21533 -2.51901,-3.30999 -4.55202,-7.61322 -5.61051,-11.87525 -0.71286,-2.87034 -0.93686,-4.79894 -0.93586,-8.06359 7.4e-4,-2.55413 0.0703,-3.46416 0.42943,-5.61464 0.9686,-5.8002 3.51539,-11.31311 7.34376,-15.89775 0.97235,-1.16443 3.95047,-4.10359 5.51284,-5.44101 5.53965,-4.74207 12.11833,-7.62947 19.41639,-8.52093 1.02096,-0.124743 2.82416,-0.200512 4.42556,-0.207222 z" style="fill:#000000;stroke-width:1" />
  </g>
</svg>
