<?xml version="1.0" encoding="UTF-8" standalone="no"?>
<!-- Created with Inkscape (http://www.inkscape.org/) -->

<svg id="Layer_1" data-name="Layer 1" 
  xmlns="http://www.w3.org/2000/svg" viewBox="0 0 407.34 160.81">
  <defs id="defs2" />
  <g id="layer1" transform="translate(-41.498988,-114.15968)">
    <path id="path12083" d="m 41.498988,114.15968 0.09907,59.48639 c 5.464175,-0.0565 12.50606,-0.26971 17.479962,-0.26971 h 0.04954 c 2.057241,0.0664 3.505464,-0.0984 4.386527,-0.35224 0.880957,-0.2538 1.108631,-0.54187 1.161309,-0.63841 0.05268,-0.0965 0.09583,-0.23337 -0.06605,-0.67144 -0.16188,-0.43815 -0.550175,-1.05516 -1.084236,-1.66216 -2.098146,-2.38459 -2.744259,-5.04772 -2.504229,-7.28689 0.239959,-2.23936 1.235023,-4.03728 2.465705,-5.16255 2.091849,-1.9126 4.587082,-2.82522 7.006432,-2.87311 3.110441,-0.0615 6.100233,1.30662 7.97507,3.80867 1.522598,2.03222 1.782842,4.48522 1.392449,6.58257 -0.390392,2.09736 -1.336198,3.92404 -2.806964,5.04137 -0.709216,0.53883 -1.16332,1.73527 -1.034706,2.26209 0.0643,0.26342 0.143785,0.43058 0.572399,0.64944 0.428625,0.21885 1.277726,0.42093 2.658269,0.30824 l 0.06605,-0.005 h 18.591741 v -22.91768 c -0.124119,-1.71133 0.07681,-3.11097 0.649446,-4.23228 0.587322,-1.15022 1.628118,-1.94077 2.718858,-2.20699 2.18155,-0.53253 4.27382,0.52617 5.54223,2.19599 0.4082,0.53734 1.67196,1.34813 3.09324,1.61263 1.42119,0.26452 2.90963,0.0721 4.10025,-0.82007 2.96148,-2.21883 3.74809,-6.75138 0.50086,-10.30314 -0.49829,-0.54499 -1.73334,-1.29964 -3.16468,-1.45299 -1.43135,-0.1534 -3.07605,0.16897 -4.85431,1.73368 -0.80341,0.70692 -1.67185,1.31416 -2.65827,1.67865 -0.9865,0.36449 -2.21676,0.45966 -3.29115,-0.12658 -1.074506,-0.58623 -1.767133,-1.69164 -2.163002,-3.06572 -0.392801,-1.36335 -0.542343,-3.0779 -0.473313,-5.31654 l -4.97e-4,-15.99622 z" style="color:#000000;fill:#c5026a;stroke-width:0.264583" />
    <path id="path12081" d="m 101.0757,114.19269 v 15.98851 l -0.005,0.0275 c -0.0664,2.05721 0.10392,3.50546 0.35774,4.38652 0.25381,0.88096 0.53639,1.10861 0.63294,1.16129 0.0965,0.0527 0.23334,0.0958 0.67145,-0.066 0.43813,-0.1619 1.05516,-0.5557 1.66214,-1.08977 2.38461,-2.09814 5.04772,-2.74425 7.28689,-2.5042 2.23938,0.23999 4.04284,1.2405 5.16811,2.47118 4.37171,4.78129 3.51234,11.64326 -0.93565,14.97595 -2.03218,1.52257 -4.48521,1.78835 -6.58257,1.39793 -2.09735,-0.39037 -3.92403,-1.34168 -5.04137,-2.81252 -0.53879,-0.70925 -1.74072,-1.16332 -2.26755,-1.03474 -0.26342,0.0643 -0.42508,0.14377 -0.64395,0.5724 -0.21885,0.42863 -0.4209,1.27775 -0.30821,2.65827 l 0.005,0.066 v 22.98383 h 17.31486 c 2.37821,-0.072 4.6273,0.30633 6.16982,1.76122 0.77724,0.73322 1.29519,1.94019 1.10628,3.12076 -0.1835,1.14658 -0.86109,2.14795 -1.8768,3.12606 -0.002,0.004 -0.002,0.008 -0.005,0.0109 -2.63483,2.90936 -1.5199,8.26558 2.23454,9.60966 l 0.0991,0.0331 0.0936,0.0495 c 4.08967,2.11846 9.87055,-2.33691 8.56933,-6.79715 -0.0991,-0.31811 -0.52718,-1.0347 -1.10077,-1.81073 -0.57791,-0.78195 -1.27146,-1.64862 -1.83828,-2.60334 -0.56679,-0.95467 -1.10622,-2.08002 -0.83658,-3.42873 0.26966,-1.34888 1.43859,-2.39401 2.98318,-2.98847 l 0.13208,-0.0496 0.1376,-0.0275 c 7.21122,-1.38962 15.19056,0.34719 21.76836,0.10454 0.0126,-19.76409 -0.0124,-39.56129 0,-59.32538 -18.31708,0.003 -36.63302,0.033 -54.95129,0.033 z" style="color:#000000;fill:#ff7b02;stroke-width:0.264583" />
    <path id="path12079" d="m 70.575062,157.83995 c -1.653461,0.0335 -3.394075,0.68176 -4.947973,2.10249 -0.544989,0.49826 -1.299633,1.73326 -1.453012,3.16468 -0.153374,1.43132 0.163481,3.07605 1.728205,4.85431 0.706887,0.80341 1.314159,1.66635 1.678649,2.65298 0.36449,0.98647 0.465164,2.21678 -0.121081,3.29115 -0.586264,1.0745 -1.691587,1.76712 -3.065727,2.16299 -1.363372,0.39278 -3.077898,0.54788 -5.316538,0.47882 h -0.04953 c -4.88315,0 -12.016474,0.2134 -17.529067,0.26972 v 51.59568 H 97.90666 c -0.163679,-7.31335 1.168056,-16.36007 0.07155,-22.31531 -0.340307,-0.82473 -0.539432,-0.88498 -0.599916,-0.89715 -0.06454,-0.0128 -0.514218,0.0453 -1.188826,0.44583 -0.674608,0.40053 -1.487593,1.04232 -2.333598,1.66761 -0.846032,0.62529 -1.695398,1.26032 -2.790296,1.5906 h -0.01101 l -0.0055,0.005 c -7.194286,2.09886 -13.803842,-6.26004 -10.583863,-12.87885 h -0.0055 c 2.14466,-5.99044 10.129044,-7.7007 14.739144,-3.506 l 0.04403,0.044 0.04403,0.044 c 0.718926,0.7625 1.23944,0.97457 1.408959,1.00169 0.16954,0.0271 0.115507,0.0557 0.308213,-0.14859 0.385419,-0.40859 0.964539,-2.0792 0.902626,-3.9407 V 176.54741 H 79.375545 c -1.708732,0.12327 -3.106737,-0.0775 -4.226983,-0.64945 -1.15025,-0.58735 -1.946275,-1.62809 -2.212525,-2.71886 -0.532527,-2.18146 0.526177,-4.27381 2.196015,-5.54222 0.537342,-0.4082 1.348079,-1.67746 1.612609,-3.09854 0.264522,-1.42121 0.07765,-2.90962 -0.814546,-4.10025 -1.248093,-1.66579 -3.22924,-2.64059 -5.355167,-2.59778 z" style="color:#000000;fill:#0492d2;stroke-width:0.264583" />
    <path id="rect11854" d="m 139.85621,176.05652 c -1.66249,0.0128 -3.28189,0.12552 -4.83791,0.4128 -0.82516,0.34038 -0.89053,0.5394 -0.90263,0.59989 -0.0129,0.0645 0.0508,0.51422 0.4513,1.18882 0.40053,0.67461 1.04236,1.4931 1.66765,2.33913 0.62529,0.84603 1.26031,1.69543 1.59059,2.7903 v 0.0105 c 2.09833,7.19243 -6.25528,13.80384 -12.8733,10.58915 -0.0686,-0.0245 -0.13063,-0.0565 -0.19813,-0.0825 v -0.005 c -5.82348,-2.25161 -7.45332,-10.09386 -3.30729,-14.65263 l 0.0385,-0.044 0.044,-0.0385 c 0.7625,-0.71887 0.98007,-1.23941 1.00719,-1.40898 0.0271,-0.1695 0.0557,-0.12098 -0.1486,-0.31369 -0.40857,-0.38542 -2.0792,-0.95901 -3.9407,-0.89715 h -17.3699 v 12.92278 h -0.005 c 0.0728,2.38029 -0.30515,4.63153 -1.761229,6.17537 -0.73316,0.77722 -1.934686,1.28966 -3.115204,1.10075 -1.147815,-0.18372 -2.152438,-0.85926 -3.131608,-1.87682 -2.907242,-2.64536 -8.269552,-1.52927 -9.615223,2.22906 l -0.03853,0.099 -0.04953,0.0991 c -2.115767,4.08437 2.331561,9.85652 6.786033,8.57488 0.0016,0 0.0041,-0.005 0.0055,-0.005 h 0.01101 c 0.319537,-0.10078 1.031452,-0.52885 1.805252,-1.10075 0.781923,-0.5779 1.648619,-1.27698 2.603288,-1.84375 0.95467,-0.56679 2.080022,-1.10074 3.428736,-0.83108 1.348845,0.26966 2.399505,1.43306 2.994025,2.97762 l 0.0495,0.13207 0.0275,0.1376 c 1.34059,6.95695 -0.087,16.24891 0.022,23.07728 18.31116,0.0323 36.62233,-0.0353 54.93349,0 v -51.75213 c -5.33718,0.22047 -11.18325,-0.64391 -16.17064,-0.60542 z" style="color:#000000;fill:#6d9908;stroke-width:0.264583" />
  </g>
</svg>
